<svg width="12" height="16" viewBox="0 0 12 16" fill="none" xmlns="http://www.w3.org/2000/svg">
<path d="M0.230827 5.88088C0.230827 5.23255 0.34416 4.62005 0.567493 4.04838C0.780872 3.49313 1.09789 2.98352 1.50166 2.54671C1.90461 2.11564 2.36572 1.74288 2.87166 1.43921C3.39076 1.12517 3.95274 0.888251 4.53999 0.735879C5.13434 0.579813 5.74634 0.501108 6.36083 0.501712C7.30999 0.501712 8.19333 0.702546 9.01249 1.10255C9.82097 1.49525 10.5091 2.09792 11.005 2.84755C11.5167 3.61005 11.7708 4.47255 11.7708 5.43421C11.7708 6.01088 11.7142 6.57505 11.5983 7.12671C11.4846 7.67807 11.3038 8.21344 11.06 8.72088C10.8276 9.21209 10.5238 9.66619 10.1583 10.0684C9.79106 10.4642 9.34628 10.7802 8.85166 10.9967C8.31466 11.2321 7.73376 11.3505 7.14749 11.3442C6.73999 11.3442 6.33333 11.2484 5.93166 11.0559C5.52999 10.8642 5.24166 10.6009 5.06833 10.2634C5.00749 10.4975 4.92416 10.8359 4.81333 11.2784C4.70666 11.72 4.63499 12.005 4.60333 12.1342C4.56999 12.2625 4.50833 12.4767 4.41833 12.7734C4.35729 12.9928 4.27899 13.2071 4.18416 13.4142L3.89749 13.9759C3.77352 14.2169 3.63493 14.4501 3.48249 14.6742C3.33166 14.8925 3.14499 15.1534 2.92249 15.4534L2.79833 15.4975L2.71583 15.4075C2.62666 14.4634 2.58083 13.8984 2.58083 13.7117C2.58083 13.1592 2.64666 12.5392 2.77666 11.8509C2.90416 11.1634 3.10583 10.2992 3.37666 9.26005C3.64749 8.22171 3.80249 7.61088 3.84416 7.43005C3.65333 7.04088 3.55666 6.53255 3.55666 5.90755C3.55666 5.40838 3.71249 4.94088 4.02499 4.50088C4.33833 4.06255 4.73416 3.84338 5.21416 3.84338C5.58166 3.84338 5.86666 3.96505 6.07083 4.20921C6.27583 4.45255 6.37583 4.75921 6.37583 5.13338C6.37583 5.53005 6.24416 6.10421 5.97916 6.85505C5.71416 7.60671 5.58249 8.16755 5.58249 8.54005C5.58249 8.91755 5.71749 9.23338 5.98749 9.48088C6.25395 9.7285 6.60632 9.8627 6.96999 9.85505C7.29999 9.85505 7.60583 9.78005 7.88999 9.62921C8.16972 9.4828 8.41184 9.27376 8.59749 9.01838C9.00184 8.46363 9.2901 7.83299 9.44499 7.16421C9.52499 6.81255 9.58666 6.47838 9.62499 6.16421C9.66583 5.84838 9.68333 5.55005 9.68333 5.26671C9.68333 4.22755 9.35333 3.41755 8.69749 2.83755C8.03833 2.25755 7.17999 1.96921 6.12416 1.96921C4.92333 1.96921 3.91916 2.35755 3.11499 3.13671C2.30999 3.91338 1.90499 4.90088 1.90499 6.09838C1.90499 6.36255 1.94499 6.61755 2.02083 6.86421C2.09499 7.11005 2.17583 7.30588 2.26333 7.45088C2.34999 7.59338 2.43166 7.73255 2.50583 7.86088C2.58083 7.98921 2.61999 8.08088 2.61999 8.13588C2.61999 8.30421 2.57583 8.52338 2.48666 8.79421C2.39416 9.06505 2.28499 9.20005 2.15333 9.20005C2.14083 9.20005 2.08916 9.19088 1.99916 9.17171C1.68746 9.07866 1.40597 8.9047 1.18333 8.66755C0.947025 8.42176 0.760539 8.13255 0.63416 7.81588C0.508142 7.50034 0.409989 7.17437 0.340827 6.84171C0.266103 6.52694 0.229176 6.20439 0.230827 5.88088Z" fill="black"/>
</svg>
