<svg width="25" height="25" viewBox="0 0 25 25" fill="none" xmlns="http://www.w3.org/2000/svg">
<path d="M14.1338 1.11625C14.0179 0.999948 13.8801 0.907713 13.7285 0.844857C13.5768 0.782 13.4142 0.749763 13.25 0.750001H2C1.66848 0.750001 1.35054 0.881697 1.11612 1.11612C0.881696 1.35054 0.75 1.66848 0.75 2V13.25C0.75 13.5825 0.88125 13.9 1.11625 14.1338L11.1163 24.1338C11.2321 24.2502 11.3698 24.3427 11.5214 24.4057C11.6731 24.4688 11.8357 24.5013 12 24.5013C12.1643 24.5013 12.3269 24.4688 12.4786 24.4057C12.6302 24.3427 12.7679 24.2502 12.8838 24.1338L24.1338 12.8838C24.2499 12.7678 24.3421 12.63 24.405 12.4784C24.4679 12.3267 24.5003 12.1642 24.5003 12C24.5003 11.8358 24.4679 11.6733 24.405 11.5216C24.3421 11.37 24.2499 11.2322 24.1338 11.1163L14.1338 1.11625ZM12 21.4825L3.25 12.7325V3.25H12.7325L21.4825 12L12 21.4825Z" fill="black"/>
</svg>
