<svg width="11" height="16" viewBox="0 0 11 16" fill="none" xmlns="http://www.w3.org/2000/svg">
<path d="M9.95508 7.50772L1.15039 0.630768C1.12739 0.612655 1.09974 0.601398 1.07062 0.598291C1.0415 0.595184 1.0121 0.600352 0.98579 0.613202C0.959479 0.626051 0.937326 0.646062 0.921875 0.670934C0.906423 0.695807 0.8983 0.724534 0.898439 0.753815V2.26358C0.898439 2.35928 0.943361 2.45108 1.01758 2.50967L8.04883 7.99991L1.01758 13.4901C0.941408 13.5487 0.898439 13.6405 0.898439 13.7362V15.246C0.898439 15.3769 1.04883 15.4491 1.15039 15.3691L9.95508 8.4921C10.0299 8.43372 10.0905 8.35905 10.1321 8.27377C10.1737 8.18848 10.1954 8.09482 10.1954 7.99991C10.1954 7.905 10.1737 7.81134 10.1321 7.72605C10.0905 7.64077 10.0299 7.5661 9.95508 7.50772Z" fill="black"/>
</svg>
