<svg width="16" height="18" viewBox="0 0 16 18" fill="none" xmlns="http://www.w3.org/2000/svg">
<path d="M14.325 4.57508C13.4943 4.39241 12.7428 3.95128 12.1784 3.31499C11.614 2.67871 11.2656 1.87997 11.1833 1.03341V0.666748H8.30833V12.0584C8.30892 12.5639 8.15044 13.0567 7.85537 13.4671C7.56029 13.8775 7.14356 14.1847 6.66422 14.3451C6.18487 14.5055 5.66721 14.511 5.18456 14.3608C4.70191 14.2107 4.27874 13.9124 3.975 13.5084C3.70287 13.1508 3.53624 12.7241 3.49394 12.2767C3.45164 11.8293 3.53537 11.379 3.73565 10.9767C3.93593 10.5745 4.24477 10.2362 4.62726 10.0003C5.00974 9.76438 5.45061 9.64018 5.9 9.64175C6.14853 9.64033 6.39583 9.67686 6.63333 9.75008V6.83341C6.35695 6.79919 6.07842 6.78526 5.8 6.79175C4.77442 6.81915 3.7791 7.14503 2.9359 7.72947C2.09271 8.31392 1.43824 9.13156 1.05265 10.0823C0.667051 11.033 0.567064 12.0755 0.764929 13.0822C0.962795 14.0889 1.44992 15.016 2.16667 15.7501C2.90124 16.4969 3.84124 17.0085 4.86724 17.2199C5.89324 17.4313 6.95893 17.3329 7.92888 16.9372C8.89883 16.5416 9.72928 15.8665 10.3147 14.9978C10.9001 14.1291 11.2141 13.106 11.2167 12.0584V6.22508C12.3762 7.05337 13.7667 7.49645 15.1917 7.49175V4.65841C14.9117 4.65957 14.6325 4.63164 14.3583 4.57508H14.325Z" fill="black"/>
</svg>
