<svg width="28" height="20" viewBox="0 0 28 20" fill="none" xmlns="http://www.w3.org/2000/svg">
<path d="M21.5 18.125C22.5375 18.125 23.375 17.2875 23.375 16.25C23.375 15.2125 22.5375 14.375 21.5 14.375C20.4625 14.375 19.625 15.2125 19.625 16.25C19.625 17.2875 20.4625 18.125 21.5 18.125ZM23.375 6.875H20.25V10H25.825L23.375 6.875ZM6.5 18.125C7.5375 18.125 8.375 17.2875 8.375 16.25C8.375 15.2125 7.5375 14.375 6.5 14.375C5.4625 14.375 4.625 15.2125 4.625 16.25C4.625 17.2875 5.4625 18.125 6.5 18.125ZM24 5L27.75 10V16.25H25.25C25.25 18.325 23.575 20 21.5 20C19.425 20 17.75 18.325 17.75 16.25H10.25C10.25 18.325 8.575 20 6.5 20C4.425 20 2.75 18.325 2.75 16.25H0.25V2.5C0.25 1.1125 1.3625 0 2.75 0H20.25V5H24ZM2.75 2.5V13.75H3.7C4.3875 12.9875 5.3875 12.5 6.5 12.5C7.6125 12.5 8.6125 12.9875 9.3 13.75H17.75V2.5H2.75ZM11.5 3.75L15.875 8.125L11.5 12.5V9.375H5.25V6.875H11.5V3.75Z" fill="black"/>
</svg>
