<svg width="18" height="12" viewBox="0 0 18 12" fill="none" xmlns="http://www.w3.org/2000/svg">
<path d="M16.9942 2.00259C16.8992 1.65042 16.7137 1.32926 16.4561 1.07106C16.1985 0.812863 15.8778 0.626638 15.5258 0.530921C14.2208 0.172588 8.99999 0.166754 8.99999 0.166754C8.99999 0.166754 3.77999 0.160921 2.47416 0.503421C2.12243 0.603543 1.80234 0.792402 1.54463 1.05187C1.28692 1.31133 1.10023 1.63269 1.00249 1.98509C0.658326 3.29009 0.654992 5.99675 0.654992 5.99675C0.654992 5.99675 0.651659 8.71675 0.993326 10.0084C1.18499 10.7226 1.74749 11.2868 2.46249 11.4793C3.78083 11.8376 8.98749 11.8434 8.98749 11.8434C8.98749 11.8434 14.2083 11.8493 15.5133 11.5076C15.8654 11.412 16.1864 11.2262 16.4447 10.9686C16.703 10.7109 16.8895 10.3903 16.9858 10.0384C17.3308 8.73425 17.3333 6.02842 17.3333 6.02842C17.3333 6.02842 17.35 3.30759 16.9942 2.00259ZM7.32999 8.50425L7.33416 3.50425L11.6733 6.00842L7.32999 8.50425Z" fill="black"/>
</svg>
